PathFileType	4	(X/Y/Z)	Patient4_TMGait_0pt2_02_left_06.trc.trc
DataRate	CameraRate	NumFrames	NumMarkers	Units	OrigDataRate	OrigDataStartFrame	OrigNumFrames
43.750000000000	43.750000000000	4	33	mm	43.750000000000	53	       141
Frame#	Time	R.Midfoot.Superior			Sacral			L.Shoulder			Chest			R.Shoulder			Neck			R.ASIS			L.ASIS			R.Thigh.Superior			R.Thigh.Lateral			R.Thigh.Inferior			R.Patella			L.Thigh.Superior			L.Thigh.Lateral			L.Thigh.Inferior			L.Patella			L.Shank.Superior			L.Shank.Lateral			L.Shank.Inferior			R.Shank.Superior			R.Shank.Lateral			R.Shank.Inferior			R.Heel			R.Midfoot.Lateral			R.Toe			L.Heel			L.Midfoot.Lateral			L.Midfoot.Superior			L.Toe			L.Elbow			L.Wrist			R.Elbow			R.Wrist			
		X1	Y1	Z1	X2	Y2	Z2	X3	Y3	Z3	X4	Y4	Z4	X5	Y5	Z5	X6	Y6	Z6	X7	Y7	Z7	X8	Y8	Z8	X9	Y9	Z9	X10	Y10	Z10	X11	Y11	Z11	X12	Y12	Z12	X13	Y13	Z13	X14	Y14	Z14	X15	Y15	Z15	X16	Y16	Z16	X17	Y17	Z17	X18	Y18	Z18	X19	Y19	Z19	X20	Y20	Z20	X21	Y21	Z21	X22	Y22	Z22	X23	Y23	Z23	X24	Y24	Z24	X25	Y25	Z25	X26	Y26	Z26	X27	Y27	Z27	X28	Y28	Z28	X29	Y29	Z29	X30	Y30	Z30	X31	Y31	Z31	X32	Y32	Z32	X33	Y33	Z33	

53	14.538571428571	809.031990512959	119.583375838435	600.834201952429	780.242594572479	1002.549236472724	428.629708290498	965.136908014868	1423.775228935766	235.423786897507	1078.325064205596	1346.227476818475	385.142521554228	1017.827459812688	1421.811303743137	566.252314714102	963.861746978509	1484.536058899962	393.649775934245	1013.359608366329	927.819902891930	529.349142686109	983.243928963189	949.225411436103	258.216522742336	1045.549316333323	726.650430671767	512.509514066185	968.096772146438	623.580572100388	590.137296933036	1040.943462912441	559.728310015708	512.428792065797	1032.605692220652	454.863119363175	537.348410763842	1048.433559586431	751.494097977392	301.117632052312	975.983547107978	619.430931105266	249.436223896017	1071.015956431191	556.693711893127	315.906234515991	1079.070611121452	482.175904967567	325.825132228130	1043.069851175606	407.299615631339	324.397500789835	943.147620486966	298.340512538468	280.926746305310	983.935546965733	186.809311046918	356.002908082488	959.074027561727	388.866426997666	552.156682649661	846.900517192508	346.596896043903	625.544372528995	833.977737754573	235.417298642244	579.143584119039	633.649519912462	153.020423838251	569.905372598529	704.211378243794	104.091570405343	640.051787404412	889.573613659377	33.171696206093	622.943431477096	845.919336708701	38.987106015530	407.006251097218	916.805226805005	36.148161362645	323.578983663030	1002.005607493598	95.602342452316	348.019092782312	1128.727217672959	42.134355380042	313.960778733429	916.412945318379	1076.824627555247	113.095531610574	951.240110320103	818.064161105196	109.747564148424	1074.242683730874	1072.574109764903	674.420942089572	1237.643057336199	871.805156464680	683.917918046302	
54	14.561428571429	811.779361222380	124.871038899674	599.861970105643	778.490242809083	999.769810149830	423.042241599594	968.887425750401	1421.408922186194	232.974801837443	1078.453817215331	1343.373483375710	385.076911593390	1014.187876248501	1418.495633239781	565.200685742803	964.545248511234	1482.120855547370	391.496924590645	1010.989708508119	926.128625976768	527.070869423246	984.096548034149	947.003613940678	255.451164807583	1051.154575005292	728.615785916077	509.090363939438	978.787787183310	622.991907574609	587.114058236037	1054.389553549073	561.412171982084	509.394962977472	1048.789477579545	454.573566857053	535.339448224992	1049.838969797505	749.642459201407	298.483661344399	978.212157008795	617.301611571504	247.274854903232	1073.123803272287	555.112528541284	314.721864558597	1081.265869089704	480.311647862242	325.017482890478	1044.132636279143	405.160532786573	323.774968562489	942.961644218981	297.367499665552	280.053616989201	981.329592067653	185.673578575222	355.916129216011	972.815895998837	389.048619858215	549.926773268277	858.325810092262	351.597677110587	622.796682241231	841.440287321790	240.538081987246	577.484343360711	638.270042544986	167.677822452983	567.731936937057	705.735418067522	114.929229603949	638.240050430615	887.087543853283	32.554892833595	622.538745043606	841.402579825660	39.023446869672	406.908462361133	912.305710058070	36.128617387910	323.497431567832	997.571207183963	95.428621290605	348.102254294580	1124.280558380540	41.820196984796	313.960429753438	935.713083554346	1073.815825170662	106.402417424780	982.369214936275	816.997070921213	102.126718472736	1048.787822429566	1065.696083759883	673.544956130048	1191.825181774256	849.863150527470	686.562764064010	
55	14.584285714286	815.945871486718	130.379338565154	598.637689928036	776.785326720664	997.156587898509	417.822006710829	972.577553446268	1419.231399589928	230.951926728862	1078.393127016357	1340.780517091524	385.439583628311	1010.217668203563	1415.482853795099	564.429633176656	965.050939907347	1479.891647498285	389.726352315779	1008.699167297131	924.654767936912	525.065973817421	984.905896734443	945.026055819458	252.988527362656	1056.591930555532	731.144032782517	505.745379678631	989.562470102654	623.110884760430	584.293228881473	1067.611148216161	563.939562228438	506.375471839974	1064.944678850575	455.319307042360	533.222897270733	1051.050033076255	747.839074642410	296.127318601481	980.066775197806	615.305861217160	245.390053545604	1074.721322235695	553.552738385405	313.865265113128	1082.885071845414	478.534633087476	324.558868839732	1044.724314512764	403.167564090278	323.404832656966	942.471111937401	296.451680833318	279.369020005922	978.560834499897	184.624931783794	355.910704444204	986.844033653089	389.959289394837	547.689577647142	870.247408989843	356.793224151907	619.948024907509	849.834729496243	245.860979771995	575.631871147448	644.289152588254	181.673179483974	565.185795128056	708.810041702292	125.527951892070	636.125149377502	886.407862553780	32.147895228049	621.989215129641	836.872539808735	39.063934304926	406.803520828296	907.800986174143	36.112634067448	323.414300408768	993.124607421111	95.271990157199	348.186275445643	1119.818394185373	41.541370649023	313.955287632016	955.008291318964	1071.718746004035	100.436481069356	1014.148438319357	817.560736532318	95.515836465575	1022.532107212494	1060.581036688574	672.625089938386	1144.307551154923	832.009212209626	688.099257056513	
56	14.607142857143	821.799867229690	135.712543936573	597.265949904527	775.184763627758	994.902679364802	412.980691956552	976.224509587658	1417.408725478085	229.367857682473	1078.177558081547	1338.620691132912	386.222666412152	1005.980421214571	1412.966050407996	563.915679033908	965.395776809892	1478.006384256281	388.334107616029	1006.476930626259	923.550897723762	523.348510789825	985.712769674463	943.409371701535	250.852687574499	1061.579997336667	734.238382463417	502.590301939170	999.927167921065	624.034460627702	581.751306109145	1080.061565496878	567.314427348201	503.480427507262	1080.475338173034	457.181550535691	531.108471067720	1051.998740539740	746.155559538910	294.112400302664	981.419399503053	613.543469634577	243.806937871911	1075.649835359433	552.068145473946	313.342965030107	1083.744867934653	476.907888791489	324.442150795058	1044.682931253242	401.401563080672	323.273640002214	941.544321464907	295.637483896473	278.864376193017	975.571822131873	183.706867507904	355.971922344959	1000.692943329022	391.640914860394	545.561693042029	882.285542255847	361.920485275941	617.135245646575	859.096146463286	251.050088786948	573.711786705938	651.756818299576	193.957205909275	562.448448462096	713.735346781275	135.082798023758	633.869778847092	888.192638154624	32.048610551514	621.351678400973	832.322365534879	39.107771292667	406.692484278047	903.285705682094	36.099679978089	323.330187850061	988.659121175809	95.137943417034	348.262643913879	1115.335447904325	41.303593805554	313.946266583094	974.008065201141	1070.700717007147	95.247837258479	1046.259105496619	820.033750889132	89.925967222821	995.895137102012	1057.480555071689	671.618589011966	1096.001831018781	818.539468449583	688.519046756687	
